{
  "accessors": [
    {
      "bufferView": 2,
      "componentType": 5126,
      "count": 8198,
      "max": [
        1.7245174646377563,
        5.584902763366699,
        4.847297191619873
      ],
      "min": [
        -1.7245733737945557,
        0.03498108312487602,
        -3.1791176795959473
      ],
      "type": "VEC3"
    },
    {
      "bufferView": 2,
      "byteOffset": 98376,
      "componentType": 5126,
      "count": 8198,
      "max": [
        0.9998037815093994,
        0.9999468922615051,
        0.99994295835495
      ],
      "min": [
        -0.9998037815093994,
        -0.9999986886978149,
        -0.9999656081199646
      ],
      "type": "VEC3"
    },
    {
      "bufferView": 3,
      "componentType": 5126,
      "count": 8198,
      "max": [
        0.9997878074645996,
        0.9498199224472046,
        0.9985583424568176,
        1.0
      ],
      "min": [
        -0.9999593496322632,
        -0.999599039554596,
        -0.9992461800575256,
        1.0
      ],
      "type": "VEC4"
    },
    {
      "bufferView": 1,
      "componentType": 5126,
      "count": 8198,
      "max": [
        0.9926841259002686,
        0.9918429851531982
      ],
      "min": [
        0.006528019905090332,
        0.009103953838348389
      ],
      "type": "VEC2"
    },
    {
      "bufferView": 1,
      "byteOffset": 65584,
      "componentType": 5126,
      "count": 8198,
      "max": [
        0.9926841259002686,
        0.9918429851531982
      ],
      "min": [
        0.006528019905090332,
        0.009103953838348389
      ],
      "type": "VEC2"
    },
    {
      "bufferView": 1,
      "byteOffset": 131168,
      "componentType": 5126,
      "count": 8198,
      "max": [
        0.9926841259002686,
        0.9918429851531982
      ],
      "min": [
        0.006528019905090332,
        0.009103953838348389
      ],
      "type": "VEC2"
    },
    {
      "bufferView": 1,
      "byteOffset": 196752,
      "componentType": 5126,
      "count": 8198,
      "max": [
        0.9926841259002686,
        0.9918429851531982
      ],
      "min": [
        0.006528019905090332,
        0.009103953838348389
      ],
      "type": "VEC2"
    },
    {
      "bufferView": 1,
      "byteOffset": 262336,
      "componentType": 5126,
      "count": 8198,
      "max": [
        0.9926841259002686,
        0.9918429851531982
      ],
      "min": [
        0.006528019905090332,
        0.009103953838348389
      ],
      "type": "VEC2"
    },
    {
      "bufferView": 0,
      "componentType": 5125,
      "count": 46590,
      "type": "SCALAR"
    }
  ],
  "asset": {
    "extras": {
      "author": "Al-Deezel (https://sketchfab.com/Al-dezel)",
      "license": "CC-BY-4.0 (http://creativecommons.org/licenses/by/4.0/)",
      "source": "https://sketchfab.com/3d-models/dolphin-high-quality-41f9da2e89d94b34a9ee1bee4faad21f",
      "title": "Dolphin high quality"
    },
    "generator": "Sketchfab-15.30.0",
    "version": "2.0"
  },
  "bufferViews": [
    {
      "buffer": 0,
      "byteLength": 186360,
      "name": "floatBufferViews",
      "target": 34963
    },
    {
      "buffer": 0,
      "byteLength": 327920,
      "byteOffset": 186360,
      "byteStride": 8,
      "name": "floatBufferViews",
      "target": 34962
    },
    {
      "buffer": 0,
      "byteLength": 196752,
      "byteOffset": 514280,
      "byteStride": 12,
      "name": "floatBufferViews",
      "target": 34962
    },
    {
      "buffer": 0,
      "byteLength": 131168,
      "byteOffset": 711032,
      "byteStride": 16,
      "name": "floatBufferViews",
      "target": 34962
    }
  ],
  "buffers": [
    {
      "byteLength": 842200,
      "uri": "scene.bin"
    }
  ],
  "extensionsRequired": [
    "KHR_materials_pbrSpecularGlossiness"
  ],
  "extensionsUsed": [
    "KHR_materials_pbrSpecularGlossiness"
  ],
  "images": [
    {
      "uri": "textures/material_0_diffuse.png"
    },
    {
      "uri": "textures/material_0_specularGlossiness.png"
    },
    {
      "uri": "textures/material_0_normal.png"
    },
    {
      "uri": "textures/material_0_occlusion.png"
    }
  ],
  "materials": [
    {
      "doubleSided": true,
      "extensions": {
        "KHR_materials_pbrSpecularGlossiness": {
          "diffuseFactor": [
            1.0,
            1.0,
            1.0,
            1.0
          ],
          "diffuseTexture": {
            "index": 0
          },
          "glossinessFactor": 1.0,
          "specularFactor": [
            1.0,
            1.0,
            1.0
          ],
          "specularGlossinessTexture": {
            "index": 1
          }
        }
      },
      "name": "material_0",
      "normalTexture": {
        "index": 2
      },
      "occlusionTexture": {
        "index": 3
      }
    }
  ],
  "meshes": [
    {
      "name": "Object_0",
      "primitives": [
        {
          "attributes": {
            "NORMAL": 1,
            "POSITION": 0,
            "TANGENT": 2,
            "TEXCOORD_0": 3,
            "TEXCOORD_1": 4,
            "TEXCOORD_2": 5,
            "TEXCOORD_3": 6,
            "TEXCOORD_4": 7
          },
          "indices": 8,
          "material": 0,
          "mode": 4
        }
      ]
    }
  ],
  "nodes": [
    {
      "children": [
        1
      ],
      "matrix": [
        1.0,
        0.0,
        0.0,
        0.0,
        0.0,
        2.220446049250313e-16,
        -1.0,
        0.0,
        0.0,
        1.0,
        2.220446049250313e-16,
        0.0,
        0.0,
        0.0,
        0.0,
        1.0
      ],
      "name": "Sketchfab_model"
    },
    {
      "children": [
        2
      ],
      "name": "root"
    },
    {
      "children": [
        3
      ],
      "matrix": [
        1.0,
        0.0,
        0.0,
        0.0,
        0.0,
        2.220446049250313e-16,
        1.0,
        0.0,
        0.0,
        -1.0,
        2.220446049250313e-16,
        0.0,
        0.0,
        0.0,
        0.0,
        1.0
      ],
      "name": "GLTF_SceneRootNode"
    },
    {
      "children": [
        4
      ],
      "matrix": [
        0.009999999776482582,
        0.0,
        0.0,
        0.0,
        0.0,
        0.009999999776482582,
        0.0,
        0.0,
        0.0,
        0.0,
        0.009999999776482582,
        0.0,
        0.0,
        0.0,
        0.0,
        1.0
      ],
      "name": "RootNode.0_0"
    },
    {
      "children": [
        5
      ],
      "name": "dolphin.1_1"
    },
    {
      "mesh": 0,
      "name": "Object_5"
    }
  ],
  "samplers": [
    {
      "magFilter": 9729,
      "minFilter": 9987,
      "wrapS": 10497,
      "wrapT": 10497
    }
  ],
  "scene": 0,
  "scenes": [
    {
      "name": "Sketchfab_Scene",
      "nodes": [
        0
      ]
    }
  ],
  "textures": [
    {
      "sampler": 0,
      "source": 0
    },
    {
      "sampler": 0,
      "source": 1
    },
    {
      "sampler": 0,
      "source": 2
    },
    {
      "sampler": 0,
      "source": 3
    }
  ]
}
