<svg width="70" height="70" viewBox="0 0 70 70" fill="none" xmlns="http://www.w3.org/2000/svg">
<g clip-path="url(#clip0_369_68)">
<path d="M23 20V51H46V20H23ZM43.9096 22.0669V36.4635L39.2397 30.3322V26.3374H29.7603V34.88L25.0913 38.4626V22.0661H43.9087L43.9096 22.0669ZM37.1484 29.3687L31.9214 33.2956V28.4035H37.1484V29.3679V29.3687ZM37.1484 31.9869V36.5331H31.9214V35.9826L37.1484 31.9861V31.9869ZM39.2397 38.6V33.7774L43.7 39.5644L31.8507 48.52L25.7174 40.5974L29.8301 37.4974V38.6H39.2397ZM25.0904 43.2156L29.4817 48.9331H25.0913V43.2165L25.0904 43.2156ZM34.7087 48.9331L43.9087 41.9756V48.9331H34.7087Z" fill="white"/>
</g>
<defs>
<clipPath id="clip0_369_68">
<rect width="23" height="31" fill="white" transform="translate(23 20)"/>
</clipPath>
</defs>
</svg>
