<svg width="1200" height="1200" viewBox="0 0 70 70" fill="none" xmlns="http://www.w3.org/2000/svg">
<path d="M35.3874 21.4746C37.3263 21.4746 38.8981 19.9028 38.8981 17.9638C38.8981 16.0249 37.3263 14.4531 35.3874 14.4531C33.4485 14.4531 31.8767 16.0249 31.8767 17.9638C31.8767 19.9028 33.4485 21.4746 35.3874 21.4746Z" fill="white"/>
<path d="M24.5658 16.1227C24.2671 15.9235 23.8634 16.0043 23.6643 16.303C23.4651 16.6018 23.5458 17.0054 23.8446 17.2046L26.1851 18.7649C26.4838 18.9641 26.8875 18.8834 27.0866 18.5846C27.2858 18.2858 27.2051 17.8822 26.9063 17.683L24.5658 16.1227Z" fill="white"/>
<path d="M22.7724 20.187C22.4203 20.1166 22.0778 20.3449 22.0074 20.697C21.937 21.0491 22.1653 21.3916 22.5174 21.462L25.1179 21.9821C25.47 22.0525 25.8125 21.8242 25.8829 21.4721C25.9533 21.12 25.725 20.7775 25.3729 20.7071L22.7724 20.187Z" fill="white"/>
<path d="M25.3729 25.2328C25.725 25.1624 25.9533 24.8199 25.8829 24.4678C25.8125 24.1157 25.47 23.8874 25.1179 23.9578L22.5174 24.4779C22.1653 24.5483 21.937 24.8908 22.0074 25.2429C22.0778 25.595 22.4203 25.8233 22.7724 25.7529L25.3729 25.2328Z" fill="white"/>
<path d="M26.9206 28.2471C27.2139 28.04 27.2839 27.6343 27.0768 27.341C26.8698 27.0477 26.4641 26.9777 26.1708 27.1848L23.9603 28.7451C23.667 28.9522 23.597 29.3578 23.8041 29.6512C24.0112 29.9445 24.4168 30.0144 24.7102 29.8074L26.9206 28.2471Z" fill="white"/>
<path d="M46.3303 16.303C46.1312 16.0043 45.7275 15.9235 45.4288 16.1227L43.0883 17.683C42.7895 17.8822 42.7088 18.2858 42.908 18.5846C43.1071 18.8834 43.5108 18.9641 43.8095 18.7649L46.15 17.2046C46.4488 17.0054 46.5295 16.6018 46.3303 16.303Z" fill="white"/>
<path d="M47.2222 20.187C47.5743 20.1166 47.9168 20.3449 47.9872 20.697C48.0576 21.0491 47.8293 21.3916 47.4772 21.462L44.8767 21.9821C44.5246 22.0525 44.1821 21.8242 44.1117 21.4721C44.0412 21.12 44.2696 20.7775 44.6217 20.7071L47.2222 20.187Z" fill="white"/>
<path d="M44.6217 25.2328C44.2696 25.1624 44.0412 24.8199 44.1117 24.4678C44.1821 24.1157 44.5246 23.8874 44.8767 23.9578L47.4772 24.4779C47.8293 24.5483 48.0576 24.8908 47.9872 25.2429C47.9168 25.595 47.5743 25.8233 47.2222 25.7529L44.6217 25.2328Z" fill="white"/>
<path d="M43.074 28.2471C42.7806 28.04 42.7107 27.6343 42.9178 27.341C43.1248 27.0477 43.5305 26.9777 43.8238 27.1848L46.0343 28.7451C46.3276 28.9522 46.3976 29.3578 46.1905 29.6512C45.9834 29.9445 45.5778 30.0144 45.2844 29.8074L43.074 28.2471Z" fill="white"/>
<path d="M30.8354 47.9995C30.2609 47.9995 29.7952 48.4652 29.7952 49.0397V51.6402H26.7974C26.4034 51.6402 26.0432 51.8628 25.867 52.2152L24.8542 54.2407H23.4239C23.0649 54.2407 22.7738 54.5318 22.7738 54.8909C22.7738 55.2499 23.0649 55.541 23.4239 55.541H47.0888C47.4478 55.541 47.7389 55.2499 47.7389 54.8909C47.7389 54.5318 47.4478 54.2407 47.0888 54.2407H45.6585L44.6457 52.2152C44.4695 51.8628 44.1093 51.6402 43.7153 51.6402H40.7175V49.0397C40.7175 48.4652 40.2517 47.9995 39.6773 47.9995H30.8354Z" fill="white"/>
<path d="M31.0965 31.8767L32.3135 45.7504C32.3606 46.2876 32.8105 46.6997 33.3497 46.6997H37.165C37.7042 46.6997 38.1541 46.2876 38.2012 45.7504L39.4182 31.8767H40.7185C41.2934 31.8767 41.7587 31.4109 41.7587 30.8365V25.7403C41.7587 25.3453 41.5791 24.9717 41.2707 24.7249L38.4277 22.4506C38.0589 22.1554 37.6005 21.9947 37.1281 21.9947H33.6466C33.1742 21.9947 32.7159 22.1554 32.347 22.4506L29.5041 24.7249C29.1956 24.9717 29.0161 25.3453 29.0161 25.7403V30.8365C29.0161 31.4109 29.4813 31.8767 30.0563 31.8767H31.0965Z" fill="white"/>
</svg>
