<svg width="311" height="332" viewBox="0 0 311 332" fill="none" xmlns="http://www.w3.org/2000/svg">
<g clip-path="url(#clip0_5315_21125)">
<rect width="311" height="332" fill="black"/>
<rect width="311" height="332" fill="white" fill-opacity="0.05"/>
<path opacity="0.05" fill-rule="evenodd" clip-rule="evenodd" d="M262.664 39.0272C251.194 63.8425 259.455 89.8641 259.455 89.8641C259.455 89.8641 286.313 75.6521 297.783 50.8368C309.253 26.0215 300.992 0 300.992 0C300.992 0 274.134 14.2119 262.664 39.0272ZM212.756 75.1026C217.663 101.446 240.282 120.276 240.282 120.276C240.282 120.276 254.945 96.3939 250.037 70.05C245.13 43.7064 222.511 24.8769 222.511 24.8769C222.511 24.8769 207.848 48.759 212.756 75.1026ZM255.328 172.493C255.328 172.493 224.613 166.136 204.64 145.611C184.667 125.085 183 98.1639 183 98.1639C183 98.1639 213.715 104.521 233.688 125.046C253.661 145.572 255.328 172.493 255.328 172.493ZM236.462 206.173C266.199 214.43 296.148 205.815 296.148 205.815C296.148 205.815 277.884 183.812 248.147 175.555C218.411 167.298 188.462 175.913 188.462 175.913C188.462 175.913 206.725 197.915 236.462 206.173ZM343.99 218.847C343.99 218.847 323.705 239.521 293.284 245.706C262.864 251.889 233.827 241.243 233.827 241.243C233.827 241.243 254.111 220.569 284.532 214.384C314.952 208.2 343.99 218.847 343.99 218.847ZM434.335 39.0272C445.805 63.8425 437.544 89.8641 437.544 89.8641C437.544 89.8641 410.687 75.6521 399.216 50.8368C387.746 26.0215 396.008 0 396.008 0C396.008 0 422.865 14.2119 434.335 39.0272ZM484.245 75.1026C479.336 101.446 456.717 120.276 456.717 120.276C456.717 120.276 442.055 96.3939 446.962 70.05C451.87 43.7064 474.489 24.8769 474.489 24.8769C474.489 24.8769 489.152 48.759 484.245 75.1026ZM441.672 172.493C441.672 172.493 472.388 166.136 492.358 145.611C512.332 125.085 514 98.1639 514 98.1639C514 98.1639 483.283 104.521 463.312 125.046C443.339 145.572 441.672 172.493 441.672 172.493ZM460.538 206.173C430.801 214.43 400.852 205.815 400.852 205.815C400.852 205.815 419.115 183.812 448.852 175.555C478.589 167.298 508.539 175.913 508.539 175.913C508.539 175.913 490.274 197.915 460.538 206.173ZM353.01 218.847C353.01 218.847 373.294 239.521 403.715 245.706C434.136 251.889 463.173 241.243 463.173 241.243C463.173 241.243 442.888 220.569 412.468 214.384C382.047 208.2 353.01 218.847 353.01 218.847ZM308.882 271C308.882 271 320.996 259.253 328.758 252.634C336.52 246.012 348.634 237.093 348.634 237.093C348.634 237.093 360.748 246.012 368.51 252.634C376.272 259.253 388.386 271 388.386 271C388.386 271 391.699 271 395.011 268.174C398.324 265.348 398.324 262.522 398.324 262.522C398.324 262.522 382.886 251.61 373.479 244.156C363.426 236.191 348.634 222.965 348.634 222.965C348.634 222.965 333.492 236.433 323.789 244.156C314.086 251.88 298.944 262.522 298.944 262.522C298.944 262.522 298.944 265.348 302.256 268.174C305.569 271 308.882 271 308.882 271Z" fill="white"/>
<g filter="url(#filter0_b_5315_21125)">
<rect x="24" y="24" width="263" height="120" fill="white" fill-opacity="0.01"/>
<mask id="mask0_5315_21125" style="mask-type:alpha" maskUnits="userSpaceOnUse" x="95" y="24" width="120" height="120">
<path d="M174.634 60.1289V60.1379L170.439 64.3413V60.1289H166.243V60.1304V60.1289L159.25 67.1342V85.3452H162.048V68.5358L167.642 62.9307V85.3452H170.439V68.5358L176.034 62.9307V85.3452H178.831V60.1289H174.634Z" fill="white"/>
<path d="M139.669 62.9303V82.5429H134.075V68.5339L139.669 62.9303ZM131.278 85.3447H142.467V60.1284H138.27V60.127L131.276 67.1322L131.278 67.1337V85.3447Z" fill="white"/>
<path d="M148.061 62.9307H153.655V82.5434H148.061V62.9307ZM156.452 60.1289H145.264V85.3452H156.452V60.1289Z" fill="white"/>
<path d="M178.829 88.1475H131.278V90.9493H178.829V88.1475Z" fill="#8DC63E"/>
<path d="M148.061 102.156H134.076V96.5528H148.061V102.156ZM131.278 93.751V107.76H134.076V104.958H150.859V93.751H131.278Z" fill="white"/>
<path d="M176.033 102.156H167.641V96.5528H176.033V102.156ZM156.452 96.5528H164.844V102.156H156.452V96.5528ZM153.655 93.751V104.958H164.844V107.76H167.641V104.958H178.83V93.751H153.655Z" fill="white"/>
</mask>
<g mask="url(#mask0_5315_21125)">
<rect x="95" y="25" width="118" height="118" fill="white" style="mix-blend-mode:exclusion"/>
</g>
<rect x="24.5" y="24.5" width="262" height="119" stroke="white" stroke-opacity="0.16"/>
</g>
<rect x="24" y="156" width="263" height="1" fill="black" fill-opacity="0.08"/>
<path d="M131.593 188.36H133.093V193.68H130.333V191H122.593V193.68H119.833V188.36H121.193C121.967 187.28 122.353 185.7 122.353 183.62V177H131.593V188.36ZM124.153 188.36H128.833V179.58H125.113V183.66C125.113 185.687 124.793 187.253 124.153 188.36ZM142.944 189.76C141.917 190.773 140.664 191.28 139.184 191.28C137.704 191.28 136.451 190.773 135.424 189.76C134.411 188.733 133.904 187.48 133.904 186C133.904 184.52 134.411 183.273 135.424 182.26C136.451 181.233 137.704 180.72 139.184 180.72C140.664 180.72 141.917 181.233 142.944 182.26C143.971 183.273 144.484 184.52 144.484 186C144.484 187.48 143.971 188.733 142.944 189.76ZM137.244 187.98C137.764 188.5 138.411 188.76 139.184 188.76C139.957 188.76 140.604 188.5 141.124 187.98C141.644 187.46 141.904 186.8 141.904 186C141.904 185.2 141.644 184.54 141.124 184.02C140.604 183.5 139.957 183.24 139.184 183.24C138.411 183.24 137.764 183.5 137.244 184.02C136.737 184.54 136.484 185.2 136.484 186C136.484 186.8 136.737 187.46 137.244 187.98ZM156.699 181V191H154.199V185.16L151.659 189.16H151.339L148.779 185.12V191H146.299V181H148.839L151.499 185.2L154.159 181H156.699ZM161.753 190.76C161.42 191.093 161.02 191.26 160.553 191.26C160.086 191.26 159.686 191.093 159.353 190.76C159.02 190.427 158.853 190.027 158.853 189.56C158.853 189.093 159.02 188.693 159.353 188.36C159.686 188.027 160.086 187.86 160.553 187.86C161.02 187.86 161.42 188.027 161.753 188.36C162.086 188.693 162.253 189.093 162.253 189.56C162.253 190.027 162.086 190.427 161.753 190.76ZM169.745 177C171.091 177 172.225 177.453 173.145 178.36C174.065 179.267 174.525 180.38 174.525 181.7C174.525 183.02 174.065 184.133 173.145 185.04C172.225 185.947 171.091 186.4 169.745 186.4H167.285V191H164.525V177H169.745ZM169.745 183.82C170.331 183.82 170.818 183.62 171.205 183.22C171.591 182.807 171.785 182.3 171.785 181.7C171.785 181.087 171.591 180.58 171.205 180.18C170.818 179.78 170.331 179.58 169.745 179.58H167.285V183.82H169.745ZM189.28 180.1C190.44 181.1 191.02 182.4 191.02 184C191.02 185.6 190.44 186.9 189.28 187.9C188.12 188.9 186.567 189.493 184.62 189.68V191.3H181.92V189.68C179.96 189.48 178.407 188.887 177.26 187.9C176.113 186.9 175.54 185.6 175.54 184C175.54 182.4 176.113 181.107 177.26 180.12C178.407 179.12 179.96 178.52 181.92 178.32V176.7H184.62V178.32C186.567 178.507 188.12 179.1 189.28 180.1ZM184.62 187.16C187.047 186.88 188.26 185.827 188.26 184C188.26 182.16 187.047 181.1 184.62 180.82V187.16ZM178.28 184C178.28 185.827 179.493 186.873 181.92 187.14V180.84C179.493 181.107 178.28 182.16 178.28 184Z" fill="white"/>
<path d="M137.927 216.932C138.468 217.137 138.888 217.45 139.187 217.87C139.486 218.29 139.635 218.785 139.635 219.354C139.635 220.175 139.327 220.852 138.711 221.384C138.104 221.907 137.283 222.168 136.247 222.168C135.314 222.168 134.567 221.958 134.007 221.538C133.447 221.118 133.06 220.591 132.845 219.956L133.685 219.48C133.806 219.975 134.068 220.395 134.469 220.74C134.88 221.076 135.472 221.244 136.247 221.244C137.012 221.244 137.605 221.071 138.025 220.726C138.445 220.371 138.655 219.914 138.655 219.354C138.655 218.794 138.459 218.341 138.067 217.996C137.684 217.641 137.152 217.464 136.471 217.464H135.351V216.54H136.121C136.784 216.54 137.311 216.372 137.703 216.036C138.095 215.7 138.291 215.266 138.291 214.734C138.291 214.211 138.1 213.787 137.717 213.46C137.344 213.124 136.83 212.956 136.177 212.956C134.973 212.956 134.18 213.469 133.797 214.496L132.985 214.02C133.228 213.423 133.61 212.942 134.133 212.578C134.665 212.214 135.346 212.032 136.177 212.032C137.101 212.032 137.848 212.293 138.417 212.816C138.986 213.329 139.271 213.973 139.271 214.748C139.271 215.728 138.823 216.456 137.927 216.932ZM147.047 221.118C146.338 221.818 145.47 222.168 144.443 222.168C143.417 222.168 142.544 221.818 141.825 221.118C141.116 220.409 140.761 219.536 140.761 218.5C140.761 217.464 141.116 216.596 141.825 215.896C142.544 215.187 143.417 214.832 144.443 214.832C145.47 214.832 146.338 215.187 147.047 215.896C147.766 216.596 148.125 217.464 148.125 218.5C148.125 219.536 147.766 220.409 147.047 221.118ZM142.483 220.474C143.015 221.006 143.669 221.272 144.443 221.272C145.218 221.272 145.871 221.006 146.403 220.474C146.935 219.933 147.201 219.275 147.201 218.5C147.201 217.725 146.935 217.072 146.403 216.54C145.871 215.999 145.218 215.728 144.443 215.728C143.669 215.728 143.015 215.999 142.483 216.54C141.951 217.072 141.685 217.725 141.685 218.5C141.685 219.275 141.951 219.933 142.483 220.474ZM155.138 215V222H154.214V215.896H151.05V219.018C151.05 220.185 150.826 220.987 150.378 221.426C149.939 221.865 149.333 222.056 148.558 222V221.132C149.09 221.188 149.482 221.062 149.734 220.754C149.995 220.446 150.126 219.867 150.126 219.018V215H155.138ZM162.961 221.118C162.252 221.818 161.384 222.168 160.357 222.168C159.331 222.168 158.458 221.818 157.739 221.118C157.03 220.409 156.675 219.536 156.675 218.5C156.675 217.464 157.03 216.596 157.739 215.896C158.458 215.187 159.331 214.832 160.357 214.832C161.384 214.832 162.252 215.187 162.961 215.896C163.68 216.596 164.039 217.464 164.039 218.5C164.039 219.536 163.68 220.409 162.961 221.118ZM158.397 220.474C158.929 221.006 159.583 221.272 160.357 221.272C161.132 221.272 161.785 221.006 162.317 220.474C162.849 219.933 163.115 219.275 163.115 218.5C163.115 217.725 162.849 217.072 162.317 216.54C161.785 215.999 161.132 215.728 160.357 215.728C159.583 215.728 158.929 215.999 158.397 216.54C157.865 217.072 157.599 217.725 157.599 218.5C157.599 219.275 157.865 219.933 158.397 220.474ZM170.352 215V215.896H167.874V222H166.95V215.896H164.472V215H170.352ZM177.071 221.118C176.361 221.818 175.493 222.168 174.467 222.168C173.44 222.168 172.567 221.818 171.849 221.118C171.139 220.409 170.785 219.536 170.785 218.5C170.785 217.464 171.139 216.596 171.849 215.896C172.567 215.187 173.44 214.832 174.467 214.832C175.493 214.832 176.361 215.187 177.071 215.896C177.789 216.596 178.149 217.464 178.149 218.5C178.149 219.536 177.789 220.409 177.071 221.118ZM172.507 220.474C173.039 221.006 173.692 221.272 174.467 221.272C175.241 221.272 175.895 221.006 176.427 220.474C176.959 219.933 177.225 219.275 177.225 218.5C177.225 217.725 176.959 217.072 176.427 216.54C175.895 215.999 175.241 215.728 174.467 215.728C173.692 215.728 173.039 215.999 172.507 216.54C171.975 217.072 171.709 217.725 171.709 218.5C171.709 219.275 171.975 219.933 172.507 220.474Z" fill="#DEC668"/>
<path d="M62.2138 250.264L59.5738 254.584L62.2138 258.904H60.2458L57.6058 254.584L60.2458 250.264H62.2138ZM66.0538 250.264L63.4138 254.584L66.0538 258.904H64.0858L61.4458 254.584L64.0858 250.264H66.0538ZM81.6583 245.2V262H79.9783V246.784H71.3383V262H69.6583V245.2H81.6583ZM91.694 249.712C93.406 249.712 94.862 250.32 96.062 251.536C97.278 252.752 97.886 254.24 97.886 256C97.886 257.76 97.278 259.248 96.062 260.464C94.862 261.68 93.406 262.288 91.694 262.288C89.566 262.288 87.95 261.408 86.846 259.648V266.8H85.262V250H86.846V252.352C87.95 250.592 89.566 249.712 91.694 249.712ZM88.214 259.384C89.126 260.296 90.246 260.752 91.574 260.752C92.902 260.752 94.022 260.296 94.934 259.384C95.846 258.456 96.302 257.328 96.302 256C96.302 254.672 95.846 253.552 94.934 252.64C94.022 251.712 92.902 251.248 91.574 251.248C90.246 251.248 89.126 251.712 88.214 252.64C87.302 253.552 86.846 254.672 86.846 256C86.846 257.328 87.302 258.456 88.214 259.384ZM110.576 260.488C109.36 261.688 107.872 262.288 106.112 262.288C104.352 262.288 102.856 261.688 101.624 260.488C100.408 259.272 99.7998 257.776 99.7998 256C99.7998 254.224 100.408 252.736 101.624 251.536C102.856 250.32 104.352 249.712 106.112 249.712C107.872 249.712 109.36 250.32 110.576 251.536C111.808 252.736 112.424 254.224 112.424 256C112.424 257.776 111.808 259.272 110.576 260.488ZM102.752 259.384C103.664 260.296 104.784 260.752 106.112 260.752C107.44 260.752 108.56 260.296 109.472 259.384C110.384 258.456 110.84 257.328 110.84 256C110.84 254.672 110.384 253.552 109.472 252.64C108.56 251.712 107.44 251.248 106.112 251.248C104.784 251.248 103.664 251.712 102.752 252.64C101.84 253.552 101.384 254.672 101.384 256C101.384 257.328 101.84 258.456 102.752 259.384ZM124.686 260.464H126.366V265.216H124.782V262H114.99V265.216H113.406V260.464H114.87C115.686 259.392 116.094 257.88 116.094 255.928V250H124.686V260.464ZM116.79 260.464H123.102V251.536H117.678V255.928C117.678 257.768 117.382 259.28 116.79 260.464ZM136.933 250H138.613L133.477 263.104C133.013 264.288 132.349 265.216 131.485 265.888C130.637 266.576 129.685 266.88 128.629 266.8V265.312C130.069 265.472 131.165 264.64 131.917 262.816L132.229 262.072L126.853 250H128.533L133.045 260.056L136.933 250ZM150.224 262H148.112L142.112 256.216V262H140.528V250H142.112V255.304L147.824 250H149.984L143.792 255.76L150.224 262ZM161.027 250V251.536H156.779V262H155.195V251.536H150.947V250H161.027ZM171.693 250H173.037V262H171.453V252.76L164.301 262H162.957V250H164.541V259.24L171.693 250ZM184.019 255.832C185.331 256.312 185.987 257.248 185.987 258.64C185.987 259.616 185.659 260.424 185.003 261.064C184.363 261.688 183.435 262 182.219 262H176.387V250H181.739C182.907 250 183.811 250.304 184.451 250.912C185.091 251.504 185.411 252.272 185.411 253.216C185.411 254.416 184.947 255.288 184.019 255.832ZM181.739 251.536H177.971V255.184H181.739C183.131 255.184 183.827 254.56 183.827 253.312C183.827 252.752 183.643 252.32 183.275 252.016C182.923 251.696 182.411 251.536 181.739 251.536ZM182.219 260.464C182.923 260.464 183.459 260.296 183.827 259.96C184.211 259.624 184.403 259.152 184.403 258.544C184.403 257.984 184.211 257.544 183.827 257.224C183.459 256.888 182.923 256.72 182.219 256.72H177.971V260.464H182.219ZM196.883 250H198.467V262H196.883V256.768H189.971V262H188.387V250H189.971V255.232H196.883V250ZM211.873 260.488C210.657 261.688 209.169 262.288 207.409 262.288C205.649 262.288 204.153 261.688 202.921 260.488C201.705 259.272 201.097 257.776 201.097 256C201.097 254.224 201.705 252.736 202.921 251.536C204.153 250.32 205.649 249.712 207.409 249.712C209.169 249.712 210.657 250.32 211.873 251.536C213.105 252.736 213.721 254.224 213.721 256C213.721 257.776 213.105 259.272 211.873 260.488ZM204.049 259.384C204.961 260.296 206.081 260.752 207.409 260.752C208.737 260.752 209.857 260.296 210.769 259.384C211.681 258.456 212.137 257.328 212.137 256C212.137 254.672 211.681 253.552 210.769 252.64C209.857 251.712 208.737 251.248 207.409 251.248C206.081 251.248 204.961 251.712 204.049 252.64C203.137 253.552 202.681 254.672 202.681 256C202.681 257.328 203.137 258.456 204.049 259.384ZM221.963 262.288C220.155 262.288 218.651 261.688 217.451 260.488C216.251 259.272 215.651 257.776 215.651 256C215.651 254.224 216.251 252.736 217.451 251.536C218.651 250.32 220.155 249.712 221.963 249.712C223.147 249.712 224.211 250 225.155 250.576C226.099 251.136 226.787 251.896 227.219 252.856L225.923 253.6C225.603 252.88 225.083 252.312 224.363 251.896C223.659 251.464 222.859 251.248 221.963 251.248C220.635 251.248 219.515 251.712 218.603 252.64C217.691 253.552 217.235 254.672 217.235 256C217.235 257.328 217.691 258.456 218.603 259.384C219.515 260.296 220.635 260.752 221.963 260.752C222.859 260.752 223.659 260.544 224.363 260.128C225.067 259.696 225.619 259.12 226.019 258.4L227.339 259.168C226.843 260.128 226.115 260.888 225.155 261.448C224.195 262.008 223.131 262.288 221.963 262.288ZM238.019 250V251.536H233.771V262H232.187V251.536H227.939V250H238.019ZM244.822 254.56C245.942 254.56 246.886 254.912 247.654 255.616C248.438 256.304 248.83 257.192 248.83 258.28C248.83 259.368 248.438 260.264 247.654 260.968C246.886 261.656 245.942 262 244.822 262H239.95V250H241.534V254.56H244.822ZM244.822 260.464C245.494 260.464 246.062 260.264 246.526 259.864C247.006 259.464 247.246 258.936 247.246 258.28C247.246 257.624 247.006 257.096 246.526 256.696C246.062 256.296 245.494 256.096 244.822 256.096H241.534V260.464H244.822ZM253.629 259.96L252.189 265.36H250.749L251.709 259.96H253.629ZM49.147 298.288C47.339 298.288 45.835 297.688 44.635 296.488C43.435 295.272 42.835 293.776 42.835 292C42.835 290.224 43.435 288.736 44.635 287.536C45.835 286.32 47.339 285.712 49.147 285.712C50.331 285.712 51.395 286 52.339 286.576C53.283 287.136 53.971 287.896 54.403 288.856L53.107 289.6C52.787 288.88 52.267 288.312 51.547 287.896C50.843 287.464 50.043 287.248 49.147 287.248C47.819 287.248 46.699 287.712 45.787 288.64C44.875 289.552 44.419 290.672 44.419 292C44.419 293.328 44.875 294.456 45.787 295.384C46.699 296.296 47.819 296.752 49.147 296.752C50.043 296.752 50.843 296.544 51.547 296.128C52.251 295.696 52.803 295.12 53.203 294.4L54.523 295.168C54.027 296.128 53.299 296.888 52.339 297.448C51.379 298.008 50.315 298.288 49.147 298.288ZM62.224 285.712C64 285.712 65.432 286.344 66.52 287.608C67.624 288.856 68.176 290.336 68.176 292.048C68.176 292.224 68.16 292.472 68.128 292.792H57.592C57.752 294.008 58.264 294.976 59.128 295.696C60.008 296.4 61.088 296.752 62.368 296.752C63.28 296.752 64.064 296.568 64.72 296.2C65.392 295.816 65.896 295.32 66.232 294.712L67.624 295.528C67.096 296.376 66.376 297.048 65.464 297.544C64.552 298.04 63.512 298.288 62.344 298.288C60.456 298.288 58.92 297.696 57.736 296.512C56.552 295.328 55.96 293.824 55.96 292C55.96 290.208 56.544 288.712 57.712 287.512C58.88 286.312 60.384 285.712 62.224 285.712ZM62.224 287.248C60.976 287.248 59.928 287.624 59.08 288.376C58.248 289.112 57.752 290.072 57.592 291.256H66.544C66.384 289.992 65.896 289.008 65.08 288.304C64.264 287.6 63.312 287.248 62.224 287.248ZM77.1276 285.712C78.8396 285.712 80.2956 286.32 81.4956 287.536C82.7116 288.752 83.3196 290.24 83.3196 292C83.3196 293.76 82.7116 295.248 81.4956 296.464C80.2956 297.68 78.8396 298.288 77.1276 298.288C74.9996 298.288 73.3836 297.408 72.2796 295.648V302.8H70.6956V286H72.2796V288.352C73.3836 286.592 74.9996 285.712 77.1276 285.712ZM73.6476 295.384C74.5596 296.296 75.6796 296.752 77.0076 296.752C78.3356 296.752 79.4556 296.296 80.3676 295.384C81.2796 294.456 81.7356 293.328 81.7356 292C81.7356 290.672 81.2796 289.552 80.3676 288.64C79.4556 287.712 78.3356 287.248 77.0076 287.248C75.6796 287.248 74.5596 287.712 73.6476 288.64C72.7356 289.552 72.2796 290.672 72.2796 292C72.2796 293.328 72.7356 294.456 73.6476 295.384ZM93.5854 291.832C94.8974 292.312 95.5534 293.248 95.5534 294.64C95.5534 295.616 95.2254 296.424 94.5694 297.064C93.9294 297.688 93.0014 298 91.7854 298H85.9534V286H91.3054C92.4734 286 93.3774 286.304 94.0174 286.912C94.6574 287.504 94.9774 288.272 94.9774 289.216C94.9774 290.416 94.5134 291.288 93.5854 291.832ZM91.3054 287.536H87.5374V291.184H91.3054C92.6974 291.184 93.3934 290.56 93.3934 289.312C93.3934 288.752 93.2094 288.32 92.8414 288.016C92.4894 287.696 91.9774 287.536 91.3054 287.536ZM91.7854 296.464C92.4894 296.464 93.0254 296.296 93.3934 295.96C93.7774 295.624 93.9694 295.152 93.9694 294.544C93.9694 293.984 93.7774 293.544 93.3934 293.224C93.0254 292.888 92.4894 292.72 91.7854 292.72H87.5374V296.464H91.7854ZM106.689 286H108.033V298H106.449V288.76L99.2974 298H97.9534V286H99.5374V295.24L106.689 286ZM116.975 298.288C115.167 298.288 113.663 297.688 112.463 296.488C111.263 295.272 110.663 293.776 110.663 292C110.663 290.224 111.263 288.736 112.463 287.536C113.663 286.32 115.167 285.712 116.975 285.712C118.159 285.712 119.223 286 120.167 286.576C121.111 287.136 121.799 287.896 122.231 288.856L120.935 289.6C120.615 288.88 120.095 288.312 119.375 287.896C118.671 287.464 117.871 287.248 116.975 287.248C115.647 287.248 114.527 287.712 113.615 288.64C112.703 289.552 112.247 290.672 112.247 292C112.247 293.328 112.703 294.456 113.615 295.384C114.527 296.296 115.647 296.752 116.975 296.752C117.871 296.752 118.671 296.544 119.375 296.128C120.079 295.696 120.631 295.12 121.031 294.4L122.351 295.168C121.855 296.128 121.127 296.888 120.167 297.448C119.207 298.008 118.143 298.288 116.975 298.288ZM129.497 290.56C130.617 290.56 131.561 290.912 132.329 291.616C133.113 292.304 133.505 293.192 133.505 294.28C133.505 295.368 133.113 296.264 132.329 296.968C131.561 297.656 130.617 298 129.497 298H124.625V286H126.209V290.56H129.497ZM135.185 286H136.769V298H135.185V286ZM129.497 296.464C130.169 296.464 130.737 296.264 131.201 295.864C131.681 295.464 131.921 294.936 131.921 294.28C131.921 293.624 131.681 293.096 131.201 292.696C130.737 292.296 130.169 292.096 129.497 292.096H126.209V296.464H129.497ZM142.781 295.96L141.341 301.36H139.901L140.861 295.96H142.781ZM161.963 296.488C160.747 297.688 159.259 298.288 157.499 298.288C155.739 298.288 154.243 297.688 153.011 296.488C151.795 295.272 151.187 293.776 151.187 292C151.187 290.224 151.795 288.736 153.011 287.536C154.243 286.32 155.739 285.712 157.499 285.712C159.259 285.712 160.747 286.32 161.963 287.536C163.195 288.736 163.811 290.224 163.811 292C163.811 293.776 163.195 295.272 161.963 296.488ZM154.139 295.384C155.051 296.296 156.171 296.752 157.499 296.752C158.827 296.752 159.947 296.296 160.859 295.384C161.771 294.456 162.227 293.328 162.227 292C162.227 290.672 161.771 289.552 160.859 288.64C159.947 287.712 158.827 287.248 157.499 287.248C156.171 287.248 155.051 287.712 154.139 288.64C153.227 289.552 152.771 290.672 152.771 292C152.771 293.328 153.227 294.456 154.139 295.384ZM171.789 298.288C170.061 298.288 168.621 297.72 167.469 296.584C166.317 295.432 165.741 293.944 165.741 292.12C165.741 290.072 166.045 288.504 166.653 287.416C167.261 286.312 168.493 285.312 170.349 284.416C170.701 284.24 171.165 284.032 171.741 283.792C172.333 283.552 172.773 283.36 173.061 283.216C173.365 283.072 173.693 282.888 174.045 282.664C174.397 282.424 174.661 282.16 174.837 281.872C175.013 281.584 175.125 281.24 175.173 280.84L176.421 281.56C176.357 281.944 176.229 282.304 176.037 282.64C175.845 282.976 175.645 283.248 175.437 283.456C175.245 283.664 174.933 283.896 174.501 284.152C174.085 284.392 173.757 284.568 173.517 284.68C173.293 284.776 172.893 284.944 172.317 285.184C171.757 285.424 171.381 285.584 171.189 285.664C170.069 286.144 169.245 286.648 168.717 287.176C168.189 287.688 167.813 288.36 167.589 289.192C168.133 288.472 168.821 287.944 169.653 287.608C170.501 287.256 171.325 287.08 172.125 287.08C173.725 287.08 175.045 287.608 176.085 288.664C177.141 289.704 177.669 291.04 177.669 292.672C177.669 294.288 177.109 295.632 175.989 296.704C174.885 297.76 173.485 298.288 171.789 298.288ZM171.789 296.704C173.037 296.704 174.061 296.328 174.861 295.576C175.677 294.808 176.085 293.84 176.085 292.672C176.085 291.488 175.701 290.52 174.933 289.768C174.181 289 173.173 288.616 171.909 288.616C170.773 288.616 169.741 288.976 168.813 289.696C167.885 290.4 167.421 291.344 167.421 292.528C167.421 293.744 167.837 294.744 168.669 295.528C169.517 296.312 170.557 296.704 171.789 296.704ZM188.25 286H189.93L184.794 299.104C184.33 300.288 183.666 301.216 182.802 301.888C181.954 302.576 181.002 302.88 179.946 302.8V301.312C181.386 301.472 182.482 300.64 183.234 298.816L183.546 298.072L178.17 286H179.85L184.362 296.056L188.25 286ZM199.62 286H201.204V298H199.62V293.44C198.692 293.92 197.548 294.16 196.188 294.16C194.62 294.16 193.42 293.8 192.588 293.08C191.772 292.344 191.364 291.264 191.364 289.84V286H192.948V289.84C192.948 290.848 193.212 291.576 193.74 292.024C194.268 292.456 195.068 292.672 196.14 292.672C197.388 292.672 198.548 292.44 199.62 291.976V286ZM210.115 285.712C211.891 285.712 213.323 286.344 214.411 287.608C215.515 288.856 216.067 290.336 216.067 292.048C216.067 292.224 216.051 292.472 216.019 292.792H205.483C205.643 294.008 206.155 294.976 207.019 295.696C207.899 296.4 208.979 296.752 210.259 296.752C211.171 296.752 211.955 296.568 212.611 296.2C213.283 295.816 213.787 295.32 214.123 294.712L215.515 295.528C214.987 296.376 214.267 297.048 213.355 297.544C212.443 298.04 211.403 298.288 210.235 298.288C208.347 298.288 206.811 297.696 205.627 296.512C204.443 295.328 203.851 293.824 203.851 292C203.851 290.208 204.435 288.712 205.603 287.512C206.771 286.312 208.275 285.712 210.115 285.712ZM210.115 287.248C208.867 287.248 207.819 287.624 206.971 288.376C206.139 289.112 205.643 290.072 205.483 291.256H214.435C214.275 289.992 213.787 289.008 212.971 288.304C212.155 287.6 211.203 287.248 210.115 287.248ZM227.082 286H228.666V298H227.082V292.768H220.17V298H218.586V286H220.17V291.232H227.082V286ZM240.752 286H242.096V298H240.512V288.76L233.36 298H232.016V286H233.6V295.24L240.752 286ZM250.99 285.712C252.766 285.712 254.198 286.344 255.286 287.608C256.39 288.856 256.942 290.336 256.942 292.048C256.942 292.224 256.926 292.472 256.894 292.792H246.358C246.518 294.008 247.03 294.976 247.894 295.696C248.774 296.4 249.854 296.752 251.134 296.752C252.046 296.752 252.83 296.568 253.486 296.2C254.158 295.816 254.662 295.32 254.998 294.712L256.39 295.528C255.862 296.376 255.142 297.048 254.23 297.544C253.318 298.04 252.278 298.288 251.11 298.288C249.222 298.288 247.686 297.696 246.502 296.512C245.318 295.328 244.726 293.824 244.726 292C244.726 290.208 245.31 288.712 246.478 287.512C247.646 286.312 249.15 285.712 250.99 285.712ZM250.99 287.248C249.742 287.248 248.694 287.624 247.846 288.376C247.014 289.112 246.518 290.072 246.358 291.256H255.31C255.15 289.992 254.662 289.008 253.846 288.304C253.03 287.6 252.078 287.248 250.99 287.248ZM260.961 286.264L263.601 290.584L260.961 294.904H258.993L261.633 290.584L258.993 286.264H260.961ZM264.801 286.264L267.441 290.584L264.801 294.904H262.833L265.473 290.584L262.833 286.264H264.801Z" fill="white"/>
</g>
<rect x="0.5" y="0.5" width="310" height="331" stroke="white" stroke-opacity="0.16"/>
<defs>
<filter id="filter0_b_5315_21125" x="8" y="8" width="295" height="152" filterUnits="userSpaceOnUse" color-interpolation-filters="sRGB">
<feFlood flood-opacity="0" result="BackgroundImageFix"/>
<feGaussianBlur in="BackgroundImageFix" stdDeviation="8"/>
<feComposite in2="SourceAlpha" operator="in" result="effect1_backgroundBlur_5315_21125"/>
<feBlend mode="normal" in="SourceGraphic" in2="effect1_backgroundBlur_5315_21125" result="shape"/>
</filter>
<clipPath id="clip0_5315_21125">
<rect width="311" height="332" fill="white"/>
</clipPath>
</defs>
</svg>
