<svg width="2535" height="2535" viewBox="0 0 2535 2535" fill="none" xmlns="http://www.w3.org/2000/svg">
<path d="M1281.53 777.687C1351.75 777.687 1408.67 720.766 1408.67 650.546C1408.67 580.33 1351.75 523.409 1281.53 523.409C1211.31 523.409 1154.39 580.33 1154.39 650.546C1154.39 720.766 1211.31 777.687 1281.53 777.687Z" fill="#FF0000"/>
<path d="M889.633 583.872C878.816 576.658 864.196 579.584 856.986 590.402C849.772 601.222 852.694 615.838 863.515 623.052L948.275 679.558C959.092 686.771 973.712 683.849 980.922 673.028C988.136 662.207 985.213 647.591 974.392 640.377L889.633 583.872Z" fill="#FF0000"/>
<path d="M824.686 731.058C811.935 728.508 799.532 736.776 796.982 749.527C794.433 762.278 802.701 774.682 815.452 777.231L909.627 796.066C922.378 798.616 934.781 790.348 937.331 777.597C939.88 764.846 931.613 752.442 918.861 749.893L824.686 731.058Z" fill="#FF0000"/>
<path d="M918.861 913.788C931.613 911.238 939.88 898.835 937.331 886.084C934.781 873.333 922.378 865.065 909.627 867.615L815.452 886.45C802.701 888.999 794.433 901.403 796.982 914.154C799.532 926.905 811.935 935.172 824.686 932.623L918.861 913.788Z" fill="#FF0000"/>
<path d="M974.91 1022.95C985.532 1015.45 988.067 1000.76 980.567 990.135C973.071 979.513 958.378 976.978 947.757 984.478L867.705 1040.98C857.084 1048.48 854.548 1063.17 862.048 1073.8C869.548 1084.42 884.237 1086.95 894.862 1079.45L974.91 1022.95Z" fill="#FF0000"/>
<path d="M1677.82 590.402C1670.61 579.584 1655.99 576.658 1645.17 583.872L1560.41 640.377C1549.59 647.591 1546.67 662.207 1553.88 673.028C1561.09 683.849 1575.71 686.771 1586.53 679.558L1671.29 623.052C1682.11 615.838 1685.03 601.222 1677.82 590.402Z" fill="#FF0000"/>
<path d="M1710.12 731.058C1722.87 728.508 1735.27 736.776 1737.82 749.527C1740.37 762.278 1732.1 774.682 1719.35 777.231L1625.18 796.066C1612.43 798.616 1600.02 790.348 1597.47 777.597C1594.92 764.846 1603.19 752.442 1615.94 749.893L1710.12 731.058Z" fill="#FF0000"/>
<path d="M1615.94 913.788C1603.19 911.238 1594.92 898.835 1597.47 886.084C1600.02 873.333 1612.43 865.065 1625.18 867.615L1719.35 886.45C1732.1 888.999 1740.37 901.403 1737.82 914.154C1735.27 926.905 1722.87 935.172 1710.12 932.623L1615.94 913.788Z" fill="#FF0000"/>
<path d="M1559.89 1022.95C1549.27 1015.45 1546.74 1000.76 1554.24 990.135C1561.73 979.513 1576.43 976.978 1587.05 984.478L1667.1 1040.98C1677.72 1048.48 1680.26 1063.17 1672.76 1073.8C1665.26 1084.42 1650.57 1086.95 1639.94 1079.45L1559.89 1022.95Z" fill="#FF0000"/>
<path d="M1116.68 1738.27C1095.88 1738.27 1079.01 1755.13 1079.01 1775.94V1870.11H970.449C956.18 1870.11 943.136 1878.17 936.755 1890.94L900.077 1964.29H848.28C835.279 1964.29 824.737 1974.83 824.737 1987.83C824.737 2000.84 835.279 2011.38 848.28 2011.38H1705.29C1718.29 2011.38 1728.83 2000.84 1728.83 1987.83C1728.83 1974.83 1718.29 1964.29 1705.29 1964.29H1653.49L1616.81 1890.94C1610.43 1878.17 1597.39 1870.11 1583.12 1870.11H1474.56V1775.94C1474.56 1755.13 1457.69 1738.27 1436.89 1738.27H1116.68Z" fill="#FF0000"/>
<path d="M1126.14 1154.39L1170.21 1656.82C1171.92 1676.27 1188.21 1691.2 1207.74 1691.2H1345.9C1365.43 1691.2 1381.72 1676.27 1383.43 1656.82L1427.5 1154.39H1474.59C1495.41 1154.39 1512.26 1137.52 1512.26 1116.72V932.167C1512.26 917.862 1505.76 904.332 1494.59 895.395L1391.63 813.032C1378.28 802.342 1361.68 796.522 1344.57 796.522H1218.49C1201.38 796.522 1184.78 802.342 1171.42 813.032L1068.47 895.395C1057.3 904.332 1050.8 917.862 1050.8 932.167V1116.72C1050.8 1137.52 1067.64 1154.39 1088.47 1154.39H1126.14Z" fill="#FF0000"/>
</svg>
