<svg width="311" height="332" viewBox="0 0 311 332" fill="none" xmlns="http://www.w3.org/2000/svg">
<g clip-path="url(#clip0_5315_21527)">
<rect width="311" height="332" fill="black"/>
<rect width="311" height="332" fill="white" fill-opacity="0.05"/>
<path opacity="0.05" fill-rule="evenodd" clip-rule="evenodd" d="M262.664 39.0272C251.194 63.8425 259.455 89.8641 259.455 89.8641C259.455 89.8641 286.313 75.6521 297.783 50.8368C309.253 26.0215 300.992 0 300.992 0C300.992 0 274.134 14.2119 262.664 39.0272ZM212.756 75.1026C217.663 101.446 240.282 120.276 240.282 120.276C240.282 120.276 254.945 96.3939 250.037 70.05C245.13 43.7064 222.511 24.8769 222.511 24.8769C222.511 24.8769 207.848 48.759 212.756 75.1026ZM255.328 172.493C255.328 172.493 224.613 166.136 204.64 145.611C184.667 125.085 183 98.1639 183 98.1639C183 98.1639 213.715 104.521 233.688 125.046C253.661 145.572 255.328 172.493 255.328 172.493ZM236.462 206.173C266.199 214.43 296.148 205.815 296.148 205.815C296.148 205.815 277.884 183.812 248.147 175.555C218.411 167.298 188.462 175.913 188.462 175.913C188.462 175.913 206.725 197.915 236.462 206.173ZM343.99 218.847C343.99 218.847 323.705 239.521 293.284 245.706C262.864 251.889 233.827 241.243 233.827 241.243C233.827 241.243 254.111 220.569 284.532 214.384C314.952 208.2 343.99 218.847 343.99 218.847ZM434.335 39.0272C445.805 63.8425 437.544 89.8641 437.544 89.8641C437.544 89.8641 410.687 75.6521 399.216 50.8368C387.746 26.0215 396.008 0 396.008 0C396.008 0 422.865 14.2119 434.335 39.0272ZM484.245 75.1026C479.336 101.446 456.717 120.276 456.717 120.276C456.717 120.276 442.055 96.3939 446.962 70.05C451.87 43.7064 474.489 24.8769 474.489 24.8769C474.489 24.8769 489.152 48.759 484.245 75.1026ZM441.672 172.493C441.672 172.493 472.388 166.136 492.358 145.611C512.332 125.085 514 98.1639 514 98.1639C514 98.1639 483.283 104.521 463.312 125.046C443.339 145.572 441.672 172.493 441.672 172.493ZM460.538 206.173C430.801 214.43 400.852 205.815 400.852 205.815C400.852 205.815 419.115 183.812 448.852 175.555C478.589 167.298 508.539 175.913 508.539 175.913C508.539 175.913 490.274 197.915 460.538 206.173ZM353.01 218.847C353.01 218.847 373.294 239.521 403.715 245.706C434.136 251.889 463.173 241.243 463.173 241.243C463.173 241.243 442.888 220.569 412.468 214.384C382.047 208.2 353.01 218.847 353.01 218.847ZM308.882 271C308.882 271 320.996 259.253 328.758 252.634C336.52 246.012 348.634 237.093 348.634 237.093C348.634 237.093 360.748 246.012 368.51 252.634C376.272 259.253 388.386 271 388.386 271C388.386 271 391.699 271 395.011 268.174C398.324 265.348 398.324 262.522 398.324 262.522C398.324 262.522 382.886 251.61 373.479 244.156C363.426 236.191 348.634 222.965 348.634 222.965C348.634 222.965 333.492 236.433 323.789 244.156C314.086 251.88 298.944 262.522 298.944 262.522C298.944 262.522 298.944 265.348 302.256 268.174C305.569 271 308.882 271 308.882 271Z" fill="white"/>
<g filter="url(#filter0_b_5315_21527)">
<rect x="24" y="24" width="263" height="120" fill="white" fill-opacity="0.01"/>
<mask id="mask0_5315_21527" style="mask-type:alpha" maskUnits="userSpaceOnUse" x="95" y="24" width="120" height="120">
<path d="M121.63 75.9805C117.189 75.9805 113.6 79.5699 113.6 84.0105C113.6 88.4511 117.189 92.0405 121.63 92.0405C126.07 92.0405 129.66 88.4511 129.66 84.0105C129.66 79.5699 126.07 75.9805 121.63 75.9805ZM120.519 87.4149L119.927 89.1541C117.707 88.4141 116.227 86.3048 116.227 83.9365C116.227 81.5682 117.707 79.4959 119.964 78.7188L120.556 80.458C119.076 80.9391 118.114 82.3453 118.114 83.8995C118.04 85.5277 119.039 86.9339 120.519 87.4149ZM123.258 89.1912L122.703 87.4149C124.22 86.9339 125.219 85.5277 125.219 83.9365C125.219 82.3453 124.22 80.9761 122.74 80.495L123.332 78.7188C125.589 79.4589 127.106 81.5682 127.106 83.9365C127.106 86.3788 125.552 88.4881 123.258 89.1912Z" fill="white"/>
<path d="M195.158 85.4541L196.047 86.5272C195.121 87.4894 193.974 87.7484 193.049 87.7484C192.161 87.7484 191.532 87.6004 190.977 87.3413C189.793 86.7493 189.201 85.5651 189.201 84.1219C189.201 81.9386 190.681 80.3104 192.864 80.3104C195.306 80.3104 196.491 82.1237 196.306 84.492H190.755C190.792 85.0841 191.125 85.6391 191.606 85.9352C192.013 86.1942 192.494 86.3052 193.123 86.3052C193.826 86.3052 194.529 86.0832 195.158 85.4541ZM190.792 83.1968H194.714C194.603 82.3457 193.9 81.6056 192.79 81.6056C191.643 81.6056 190.94 82.4197 190.792 83.1968ZM153.528 87.5264H155.526L152.381 83.8629L155.489 80.4215H153.528L151.16 83.1598H150.457V80.4215H148.94V87.4894H150.457V84.677H151.16L153.528 87.5264ZM160.041 81.7166C158.746 81.7166 157.895 82.7157 157.895 83.9739C157.895 85.2321 158.746 86.2312 160.041 86.2312C161.336 86.2312 162.15 85.2691 162.15 83.9739C162.187 82.7528 161.373 81.7166 160.041 81.7166ZM160.3 80.2734C162.298 80.2734 163.778 81.8276 163.778 83.9739C163.778 86.0832 162.335 87.7114 160.3 87.7114C159.338 87.7114 158.561 87.3783 158.006 86.7863V90.4867H156.452V80.4585H157.969V81.3096C158.561 80.6065 159.338 80.2734 160.3 80.2734ZM180.468 80.4585H174.14V81.8646H176.545V87.5264H178.099V81.8646H180.505V80.4585H180.468ZM147.866 80.4585H141.502V81.8646H143.907V87.5264H145.461V81.8646H147.866V80.4585ZM139.651 84.0109C139.651 82.6787 138.726 81.7166 137.431 81.7166C136.173 81.7166 135.211 82.6787 135.211 84.0109C135.211 85.3431 136.136 86.3052 137.431 86.3052C138.689 86.3052 139.651 85.3431 139.651 84.0109ZM133.62 84.0109C133.62 81.9016 135.248 80.3104 137.431 80.3104C139.577 80.3104 141.243 81.9016 141.243 84.0109C141.243 86.1202 139.614 87.7484 137.431 87.7484C135.285 87.7114 133.62 86.1202 133.62 84.0109ZM187.98 80.4585V87.5264H186.462V82.9748L182.762 87.5264H181.541V80.4585H183.058V85.01L186.758 80.4585H187.98ZM173.067 87.5264H171.549V80.4585H173.067V87.5264ZM169.144 85.1211C169.144 84.492 168.7 84.0479 168.108 84.0479H166.554V86.2312H168.108C168.7 86.2312 169.144 85.7501 169.144 85.1211ZM170.661 85.1211C170.661 86.5272 169.625 87.5264 168.145 87.5264H165.037V80.4585H166.554V82.7528H168.293C169.773 82.7528 170.661 83.7149 170.661 85.1211Z" fill="white"/>
</mask>
<g mask="url(#mask0_5315_21527)">
<rect x="95" y="25" width="118" height="118" fill="white" style="mix-blend-mode:exclusion"/>
</g>
<rect x="24.5" y="24.5" width="262" height="119" stroke="white" stroke-opacity="0.16"/>
</g>
<rect x="24" y="156" width="263" height="1" fill="black" fill-opacity="0.08"/>
<path d="M121.158 189.18C119.745 190.58 118.025 191.28 115.998 191.28C113.971 191.28 112.251 190.58 110.838 189.18C109.438 187.767 108.738 186.04 108.738 184C108.738 181.96 109.438 180.24 110.838 178.84C112.251 177.427 113.971 176.72 115.998 176.72C118.025 176.72 119.745 177.427 121.158 178.84C122.571 180.24 123.278 181.96 123.278 184C123.278 186.04 122.571 187.767 121.158 189.18ZM112.778 187.3C113.645 188.153 114.718 188.58 115.998 188.58C117.278 188.58 118.351 188.153 119.218 187.3C120.085 186.433 120.518 185.333 120.518 184C120.518 182.667 120.085 181.567 119.218 180.7C118.351 179.833 117.278 179.4 115.998 179.4C114.718 179.4 113.645 179.833 112.778 180.7C111.911 181.567 111.478 182.667 111.478 184C111.478 185.333 111.911 186.433 112.778 187.3ZM132.978 181V183.48H129.858V191H127.278V183.48H124.118V181H132.978ZM143.576 191H140.576L136.936 186.46V191H134.356V181H136.936V185.4L140.376 181H143.456L139.436 185.94L143.576 191ZM150.684 180.72C152.03 180.72 153.177 181.233 154.124 182.26C155.084 183.273 155.564 184.52 155.564 186C155.564 187.48 155.084 188.733 154.124 189.76C153.177 190.773 152.03 191.28 150.684 191.28C149.284 191.28 148.204 190.793 147.444 189.82V195H144.864V181H147.444V182.18C148.204 181.207 149.284 180.72 150.684 180.72ZM148.224 188.04C148.744 188.56 149.404 188.82 150.204 188.82C151.004 188.82 151.664 188.56 152.184 188.04C152.717 187.507 152.984 186.827 152.984 186C152.984 185.173 152.717 184.5 152.184 183.98C151.664 183.447 151.004 183.18 150.204 183.18C149.404 183.18 148.744 183.447 148.224 183.98C147.704 184.5 147.444 185.173 147.444 186C147.444 186.827 147.704 187.507 148.224 188.04ZM161.903 184.2C163.036 184.2 163.95 184.513 164.643 185.14C165.336 185.753 165.683 186.573 165.683 187.6C165.683 188.627 165.336 189.453 164.643 190.08C163.95 190.693 163.036 191 161.903 191H157.383V181H159.963V184.2H161.903ZM166.783 181H169.363V191H166.783V181ZM161.923 188.72C162.283 188.72 162.576 188.62 162.803 188.42C163.043 188.207 163.163 187.933 163.163 187.6C163.163 187.267 163.043 186.993 162.803 186.78C162.576 186.567 162.283 186.46 161.923 186.46H159.963V188.72H161.923ZM179.599 181V183.48H176.479V191H173.899V183.48H170.739V181H179.599ZM188.197 181H190.117V191H187.597V185.32L182.897 191H180.977V181H183.497V186.68L188.197 181ZM194.661 187.06C195.007 188.313 195.947 188.94 197.481 188.94C198.467 188.94 199.214 188.607 199.721 187.94L201.801 189.14C200.814 190.567 199.361 191.28 197.441 191.28C195.787 191.28 194.461 190.78 193.461 189.78C192.461 188.78 191.961 187.52 191.961 186C191.961 184.493 192.454 183.24 193.441 182.24C194.427 181.227 195.694 180.72 197.241 180.72C198.707 180.72 199.914 181.227 200.861 182.24C201.821 183.253 202.301 184.507 202.301 186C202.301 186.333 202.267 186.687 202.201 187.06H194.661ZM194.621 185.06H199.721C199.574 184.38 199.267 183.873 198.801 183.54C198.347 183.207 197.827 183.04 197.241 183.04C196.547 183.04 195.974 183.22 195.521 183.58C195.067 183.927 194.767 184.42 194.621 185.06Z" fill="white"/>
<path d="M137.927 216.932C138.468 217.137 138.888 217.45 139.187 217.87C139.486 218.29 139.635 218.785 139.635 219.354C139.635 220.175 139.327 220.852 138.711 221.384C138.104 221.907 137.283 222.168 136.247 222.168C135.314 222.168 134.567 221.958 134.007 221.538C133.447 221.118 133.06 220.591 132.845 219.956L133.685 219.48C133.806 219.975 134.068 220.395 134.469 220.74C134.88 221.076 135.472 221.244 136.247 221.244C137.012 221.244 137.605 221.071 138.025 220.726C138.445 220.371 138.655 219.914 138.655 219.354C138.655 218.794 138.459 218.341 138.067 217.996C137.684 217.641 137.152 217.464 136.471 217.464H135.351V216.54H136.121C136.784 216.54 137.311 216.372 137.703 216.036C138.095 215.7 138.291 215.266 138.291 214.734C138.291 214.211 138.1 213.787 137.717 213.46C137.344 213.124 136.83 212.956 136.177 212.956C134.973 212.956 134.18 213.469 133.797 214.496L132.985 214.02C133.228 213.423 133.61 212.942 134.133 212.578C134.665 212.214 135.346 212.032 136.177 212.032C137.101 212.032 137.848 212.293 138.417 212.816C138.986 213.329 139.271 213.973 139.271 214.748C139.271 215.728 138.823 216.456 137.927 216.932ZM147.047 221.118C146.338 221.818 145.47 222.168 144.443 222.168C143.417 222.168 142.544 221.818 141.825 221.118C141.116 220.409 140.761 219.536 140.761 218.5C140.761 217.464 141.116 216.596 141.825 215.896C142.544 215.187 143.417 214.832 144.443 214.832C145.47 214.832 146.338 215.187 147.047 215.896C147.766 216.596 148.125 217.464 148.125 218.5C148.125 219.536 147.766 220.409 147.047 221.118ZM142.483 220.474C143.015 221.006 143.669 221.272 144.443 221.272C145.218 221.272 145.871 221.006 146.403 220.474C146.935 219.933 147.201 219.275 147.201 218.5C147.201 217.725 146.935 217.072 146.403 216.54C145.871 215.999 145.218 215.728 144.443 215.728C143.669 215.728 143.015 215.999 142.483 216.54C141.951 217.072 141.685 217.725 141.685 218.5C141.685 219.275 141.951 219.933 142.483 220.474ZM155.138 215V222H154.214V215.896H151.05V219.018C151.05 220.185 150.826 220.987 150.378 221.426C149.939 221.865 149.333 222.056 148.558 222V221.132C149.09 221.188 149.482 221.062 149.734 220.754C149.995 220.446 150.126 219.867 150.126 219.018V215H155.138ZM162.961 221.118C162.252 221.818 161.384 222.168 160.357 222.168C159.331 222.168 158.458 221.818 157.739 221.118C157.03 220.409 156.675 219.536 156.675 218.5C156.675 217.464 157.03 216.596 157.739 215.896C158.458 215.187 159.331 214.832 160.357 214.832C161.384 214.832 162.252 215.187 162.961 215.896C163.68 216.596 164.039 217.464 164.039 218.5C164.039 219.536 163.68 220.409 162.961 221.118ZM158.397 220.474C158.929 221.006 159.583 221.272 160.357 221.272C161.132 221.272 161.785 221.006 162.317 220.474C162.849 219.933 163.115 219.275 163.115 218.5C163.115 217.725 162.849 217.072 162.317 216.54C161.785 215.999 161.132 215.728 160.357 215.728C159.583 215.728 158.929 215.999 158.397 216.54C157.865 217.072 157.599 217.725 157.599 218.5C157.599 219.275 157.865 219.933 158.397 220.474ZM170.352 215V215.896H167.874V222H166.95V215.896H164.472V215H170.352ZM177.071 221.118C176.361 221.818 175.493 222.168 174.467 222.168C173.44 222.168 172.567 221.818 171.849 221.118C171.139 220.409 170.785 219.536 170.785 218.5C170.785 217.464 171.139 216.596 171.849 215.896C172.567 215.187 173.44 214.832 174.467 214.832C175.493 214.832 176.361 215.187 177.071 215.896C177.789 216.596 178.149 217.464 178.149 218.5C178.149 219.536 177.789 220.409 177.071 221.118ZM172.507 220.474C173.039 221.006 173.692 221.272 174.467 221.272C175.241 221.272 175.895 221.006 176.427 220.474C176.959 219.933 177.225 219.275 177.225 218.5C177.225 217.725 176.959 217.072 176.427 216.54C175.895 215.999 175.241 215.728 174.467 215.728C173.692 215.728 173.039 215.999 172.507 216.54C171.975 217.072 171.709 217.725 171.709 218.5C171.709 219.275 171.975 219.933 172.507 220.474Z" fill="#DEC668"/>
<path d="M42.8896 250.264L40.2496 254.584L42.8896 258.904H40.9216L38.2816 254.584L40.9216 250.264H42.8896ZM46.7296 250.264L44.0896 254.584L46.7296 258.904H44.7616L42.1216 254.584L44.7616 250.264H46.7296ZM47.8131 262V260.512C48.9811 260.672 49.8531 260.312 50.4291 259.432C51.0211 258.536 51.3171 256.904 51.3171 254.536V245.2H62.2131V262H60.5331V246.784H52.9971V254.584C52.9971 256.104 52.8771 257.376 52.6371 258.4C52.3971 259.424 52.0371 260.208 51.5571 260.752C51.0931 261.28 50.5571 261.64 49.9491 261.832C49.3571 262.008 48.6451 262.064 47.8131 262ZM74.4606 250H76.1406L71.0046 263.104C70.5406 264.288 69.8766 265.216 69.0126 265.888C68.1646 266.576 67.2126 266.88 66.1566 266.8V265.312C67.5966 265.472 68.6926 264.64 69.4446 262.816L69.7566 262.072L64.3806 250H66.0606L70.5726 260.056L74.4606 250ZM85.831 250H87.415V262H85.831V257.44C84.903 257.92 83.759 258.16 82.399 258.16C80.831 258.16 79.631 257.8 78.799 257.08C77.983 256.344 77.575 255.264 77.575 253.84V250H79.159V253.84C79.159 254.848 79.423 255.576 79.951 256.024C80.479 256.456 81.279 256.672 82.351 256.672C83.599 256.672 84.759 256.44 85.831 255.976V250ZM105.278 250H106.862V262H90.7816V250H92.3656V260.464H98.0296V250H99.6136V260.464H105.278V250ZM118.947 250H120.291V262H118.707V252.76L111.555 262H110.211V250H111.795V259.24L118.947 250ZM125.561 248.08V246.688H131.801V248.08H125.561ZM132.377 250H133.721V262H132.137V252.76L124.985 262H123.641V250H125.225V259.24L132.377 250ZM151.519 250H153.103V262H151.519V260.128C150.623 261.568 149.279 262.288 147.487 262.288C146.031 262.288 144.879 261.848 144.031 260.968C143.199 260.072 142.783 258.872 142.783 257.368V250H144.367V257.368C144.367 258.44 144.647 259.272 145.207 259.864C145.783 260.456 146.591 260.752 147.631 260.752C148.783 260.752 149.719 260.392 150.439 259.672C151.159 258.936 151.519 257.808 151.519 256.288V250ZM157.701 253.144C157.701 253.688 157.941 254.12 158.421 254.44C158.901 254.76 159.485 255.008 160.173 255.184C160.861 255.36 161.549 255.56 162.237 255.784C162.925 255.992 163.509 256.352 163.989 256.864C164.469 257.36 164.709 258.016 164.709 258.832C164.709 259.856 164.301 260.688 163.485 261.328C162.685 261.968 161.645 262.288 160.365 262.288C159.213 262.288 158.229 262.032 157.413 261.52C156.613 261.008 156.053 260.344 155.733 259.528L157.077 258.736C157.301 259.36 157.701 259.856 158.277 260.224C158.869 260.576 159.565 260.752 160.365 260.752C161.149 260.752 161.805 260.6 162.333 260.296C162.861 259.976 163.125 259.488 163.125 258.832C163.125 258.288 162.885 257.856 162.405 257.536C161.925 257.216 161.341 256.968 160.653 256.792C159.965 256.616 159.277 256.424 158.589 256.216C157.901 255.992 157.317 255.632 156.837 255.136C156.357 254.624 156.117 253.96 156.117 253.144C156.117 252.168 156.501 251.352 157.269 250.696C158.053 250.04 159.037 249.712 160.221 249.712C161.197 249.712 162.053 249.936 162.789 250.384C163.525 250.816 164.069 251.408 164.421 252.16L163.101 252.928C162.637 251.808 161.677 251.248 160.221 251.248C159.533 251.248 158.941 251.416 158.445 251.752C157.949 252.072 157.701 252.536 157.701 253.144ZM177.32 250H178.904V262H177.32V259.648C176.216 261.408 174.6 262.288 172.472 262.288C170.76 262.288 169.296 261.68 168.08 260.464C166.88 259.248 166.28 257.76 166.28 256C166.28 254.24 166.88 252.752 168.08 251.536C169.296 250.32 170.76 249.712 172.472 249.712C174.6 249.712 176.216 250.592 177.32 252.352V250ZM169.232 259.384C170.144 260.296 171.264 260.752 172.592 260.752C173.92 260.752 175.04 260.296 175.952 259.384C176.864 258.456 177.32 257.328 177.32 256C177.32 254.672 176.864 253.552 175.952 252.64C175.04 251.712 173.92 251.248 172.592 251.248C171.264 251.248 170.144 251.712 169.232 252.64C168.32 253.552 167.864 254.672 167.864 256C167.864 257.328 168.32 258.456 169.232 259.384ZM188.69 249.712C190.402 249.712 191.858 250.32 193.058 251.536C194.274 252.752 194.882 254.24 194.882 256C194.882 257.76 194.274 259.248 193.058 260.464C191.858 261.68 190.402 262.288 188.69 262.288C186.562 262.288 184.946 261.408 183.842 259.648V262H182.258V245.2H183.842V252.352C184.946 250.592 186.562 249.712 188.69 249.712ZM185.21 259.384C186.122 260.296 187.242 260.752 188.57 260.752C189.898 260.752 191.018 260.296 191.93 259.384C192.842 258.456 193.298 257.328 193.298 256C193.298 254.672 192.842 253.552 191.93 252.64C191.018 251.712 189.898 251.248 188.57 251.248C187.242 251.248 186.122 251.712 185.21 252.64C184.298 253.552 183.842 254.672 183.842 256C183.842 257.328 184.298 258.456 185.21 259.384ZM199.124 247.12C198.9 247.344 198.628 247.456 198.308 247.456C197.988 247.456 197.716 247.344 197.492 247.12C197.268 246.896 197.156 246.624 197.156 246.304C197.156 245.984 197.268 245.712 197.492 245.488C197.716 245.264 197.988 245.152 198.308 245.152C198.628 245.152 198.9 245.264 199.124 245.488C199.348 245.712 199.46 245.984 199.46 246.304C199.46 246.624 199.348 246.896 199.124 247.12ZM197.516 262V250H199.1V262H197.516ZM202.461 262V244.48H204.045V262H202.461ZM209.015 247.12C208.791 247.344 208.519 247.456 208.199 247.456C207.879 247.456 207.607 247.344 207.383 247.12C207.159 246.896 207.047 246.624 207.047 246.304C207.047 245.984 207.159 245.712 207.383 245.488C207.607 245.264 207.879 245.152 208.199 245.152C208.519 245.152 208.791 245.264 209.015 245.488C209.239 245.712 209.351 245.984 209.351 246.304C209.351 246.624 209.239 246.896 209.015 247.12ZM207.407 262V250H208.991V262H207.407ZM218.712 251.536H215.256V258.808C215.256 259.464 215.384 259.936 215.64 260.224C215.896 260.496 216.28 260.64 216.792 260.656C217.304 260.656 217.944 260.64 218.712 260.608V262C217.032 262.256 215.768 262.136 214.92 261.64C214.088 261.144 213.672 260.2 213.672 258.808V251.536H211.152V250H213.672V247.12L215.256 246.64V250H218.712V251.536ZM230.226 250H231.906L226.77 263.104C226.306 264.288 225.642 265.216 224.778 265.888C223.93 266.576 222.978 266.88 221.922 266.8V265.312C223.362 265.472 224.458 264.64 225.21 262.816L225.522 262.072L220.146 250H221.826L226.338 260.056L230.226 250ZM234.301 264.4H233.101L242.701 242.8H243.901L234.301 264.4ZM257.299 260.656C256.147 261.744 254.643 262.288 252.787 262.288C250.931 262.288 249.427 261.744 248.275 260.656C247.123 259.568 246.547 258.112 246.547 256.288V245.2H248.227V256.288C248.227 257.632 248.627 258.696 249.427 259.48C250.227 260.264 251.347 260.656 252.787 260.656C254.227 260.656 255.347 260.264 256.147 259.48C256.947 258.696 257.347 257.632 257.347 256.288V245.2H259.027V256.288C259.027 258.112 258.451 259.568 257.299 260.656ZM273.917 262H271.997L267.437 254.824L262.877 262H260.957L266.477 253.336L261.317 245.2H263.213L267.437 251.824L271.661 245.2H273.557L268.397 253.336L273.917 262ZM92.8577 286V298H91.2737V287.536H84.3617V298H82.7777V286H92.8577ZM102.639 285.712C104.351 285.712 105.807 286.32 107.007 287.536C108.223 288.752 108.831 290.24 108.831 292C108.831 293.76 108.223 295.248 107.007 296.464C105.807 297.68 104.351 298.288 102.639 298.288C100.511 298.288 98.8953 297.408 97.7913 295.648V302.8H96.2073V286H97.7913V288.352C98.8953 286.592 100.511 285.712 102.639 285.712ZM99.1593 295.384C100.071 296.296 101.191 296.752 102.519 296.752C103.847 296.752 104.967 296.296 105.879 295.384C106.791 294.456 107.247 293.328 107.247 292C107.247 290.672 106.791 289.552 105.879 288.64C104.967 287.712 103.847 287.248 102.519 287.248C101.191 287.248 100.071 287.712 99.1593 288.64C98.2473 289.552 97.7913 290.672 97.7913 292C97.7913 293.328 98.2473 294.456 99.1593 295.384ZM120.201 286H121.545V298H119.961V288.76L112.809 298H111.465V286H113.049V295.24L120.201 286ZM134.735 286V298H133.151V287.536H127.727V292.888C127.727 294.888 127.343 296.264 126.575 297.016C125.823 297.768 124.783 298.096 123.455 298V296.512C124.367 296.608 125.039 296.392 125.471 295.864C125.919 295.336 126.143 294.344 126.143 292.888V286H134.735ZM148.146 296.488C146.93 297.688 145.442 298.288 143.682 298.288C141.922 298.288 140.426 297.688 139.194 296.488C137.978 295.272 137.37 293.776 137.37 292C137.37 290.224 137.978 288.736 139.194 287.536C140.426 286.32 141.922 285.712 143.682 285.712C145.442 285.712 146.93 286.32 148.146 287.536C149.378 288.736 149.994 290.224 149.994 292C149.994 293.776 149.378 295.272 148.146 296.488ZM140.322 295.384C141.234 296.296 142.354 296.752 143.682 296.752C145.01 296.752 146.13 296.296 147.042 295.384C147.954 294.456 148.41 293.328 148.41 292C148.41 290.672 147.954 289.552 147.042 288.64C146.13 287.712 145.01 287.248 143.682 287.248C142.354 287.248 141.234 287.712 140.322 288.64C139.41 289.552 138.954 290.672 138.954 292C138.954 293.328 139.41 294.456 140.322 295.384ZM165.7 298H163.78L158.884 292.216V298H157.3V292.216L152.404 298H150.484L155.86 291.76L150.724 286H152.644L157.3 291.328V286H158.884V291.328L163.54 286H165.46L160.324 291.76L165.7 298ZM172.439 285.712C174.215 285.712 175.647 286.344 176.735 287.608C177.839 288.856 178.391 290.336 178.391 292.048C178.391 292.224 178.375 292.472 178.343 292.792H167.807C167.967 294.008 168.479 294.976 169.343 295.696C170.223 296.4 171.303 296.752 172.583 296.752C173.495 296.752 174.279 296.568 174.935 296.2C175.607 295.816 176.111 295.32 176.447 294.712L177.839 295.528C177.311 296.376 176.591 297.048 175.679 297.544C174.767 298.04 173.727 298.288 172.559 298.288C170.671 298.288 169.135 297.696 167.951 296.512C166.767 295.328 166.175 293.824 166.175 292C166.175 290.208 166.759 288.712 167.927 287.512C169.095 286.312 170.599 285.712 172.439 285.712ZM172.439 287.248C171.191 287.248 170.143 287.624 169.295 288.376C168.463 289.112 167.967 290.072 167.807 291.256H176.759C176.599 289.992 176.111 289.008 175.295 288.304C174.479 287.6 173.527 287.248 172.439 287.248ZM189.406 286H190.99V298H189.406V292.768H182.494V298H180.91V286H182.494V291.232H189.406V286ZM203.076 286H204.42V298H202.836V288.76L195.684 298H194.34V286H195.924V295.24L203.076 286ZM216.41 286V298H214.826V293.392H212.762L209.066 298H207.05L210.842 293.344C209.882 293.2 209.09 292.8 208.466 292.144C207.842 291.488 207.53 290.68 207.53 289.72C207.53 288.632 207.914 287.744 208.682 287.056C209.466 286.352 210.418 286 211.538 286H216.41ZM211.538 291.904H214.826V287.536H211.538C210.866 287.536 210.29 287.736 209.81 288.136C209.346 288.536 209.114 289.064 209.114 289.72C209.114 290.376 209.346 290.904 209.81 291.304C210.29 291.704 210.866 291.904 211.538 291.904ZM221.738 286.264L224.378 290.584L221.738 294.904H219.77L222.41 290.584L219.77 286.264H221.738ZM225.578 286.264L228.218 290.584L225.578 294.904H223.61L226.25 290.584L223.61 286.264H225.578Z" fill="white"/>
</g>
<rect x="0.5" y="0.5" width="310" height="331" stroke="white" stroke-opacity="0.16"/>
<defs>
<filter id="filter0_b_5315_21527" x="8" y="8" width="295" height="152" filterUnits="userSpaceOnUse" color-interpolation-filters="sRGB">
<feFlood flood-opacity="0" result="BackgroundImageFix"/>
<feGaussianBlur in="BackgroundImageFix" stdDeviation="8"/>
<feComposite in2="SourceAlpha" operator="in" result="effect1_backgroundBlur_5315_21527"/>
<feBlend mode="normal" in="SourceGraphic" in2="effect1_backgroundBlur_5315_21527" result="shape"/>
</filter>
<clipPath id="clip0_5315_21527">
<rect width="311" height="332" fill="white"/>
</clipPath>
</defs>
</svg>
